<svg width="25" height="24" viewBox="0 0 25 24" fill="none" xmlns="http://www.w3.org/2000/svg">
    <path
        d="M22.42 11.6C20.4 6.91 16.6 4 12.5 4C8.40001 4 4.60001 6.91 2.58001 11.6C2.52494 11.7262 2.49652 11.8623 2.49652 12C2.49652 12.1377 2.52494 12.2738 2.58001 12.4C4.60001 17.09 8.40001 20 12.5 20C16.6 20 20.4 17.09 22.42 12.4C22.4751 12.2738 22.5035 12.1377 22.5035 12C22.5035 11.8623 22.4751 11.7262 22.42 11.6ZM12.5 18C9.32001 18 6.33001 15.71 4.60001 12C6.33001 8.29 9.32001 6 12.5 6C15.68 6 18.67 8.29 20.4 12C18.67 15.71 15.68 18 12.5 18ZM12.5 8C11.7089 8 10.9355 8.2346 10.2777 8.67412C9.61993 9.11365 9.10724 9.73836 8.80449 10.4693C8.50174 11.2002 8.42252 12.0044 8.57686 12.7804C8.7312 13.5563 9.11217 14.269 9.67158 14.8284C10.231 15.3878 10.9437 15.7688 11.7196 15.9231C12.4956 16.0775 13.2998 15.9983 14.0307 15.6955C14.7616 15.3928 15.3864 14.8801 15.8259 14.2223C16.2654 13.5645 16.5 12.7911 16.5 12C16.5 10.9391 16.0786 9.92172 15.3284 9.17157C14.5783 8.42143 13.5609 8 12.5 8ZM12.5 14C12.1044 14 11.7178 13.8827 11.3889 13.6629C11.06 13.4432 10.8036 13.1308 10.6522 12.7654C10.5009 12.3999 10.4613 11.9978 10.5384 11.6098C10.6156 11.2219 10.8061 10.8655 11.0858 10.5858C11.3655 10.3061 11.7219 10.1156 12.1098 10.0384C12.4978 9.96126 12.8999 10.0009 13.2654 10.1522C13.6308 10.3036 13.9432 10.56 14.1629 10.8889C14.3827 11.2178 14.5 11.6044 14.5 12C14.5 12.5304 14.2893 13.0391 13.9142 13.4142C13.5391 13.7893 13.0304 14 12.5 14Z"
        fill="#A0A3BD" />
</svg>